<svg xmlns="http://www.w3.org/2000/svg" width="220.6" height="33.131" viewBox="0 0 220.6 33.131">
  <g id="Logo-PrimaryYellow-White" transform="translate(110.3 16.565)">
    <g id="Group_17013" data-name="Group 17013" transform="translate(-110.3 -16.565)">
      <rect id="Rectangle_9557" data-name="Rectangle 9557" width="13.768" height="20.923" rx="0.459" transform="translate(0 11.736)" fill="#ebff08"/>
      <rect id="Rectangle_9558" data-name="Rectangle 9558" width="13.768" height="32.659" rx="0.459" transform="translate(33.403 0)" fill="#ebff08"/>
      <rect id="Rectangle_9559" data-name="Rectangle 9559" width="13.768" height="26.79" rx="0.459" transform="translate(16.702 5.869)" fill="#ebff08"/>
      <g id="Group_17012" data-name="Group 17012" transform="translate(58.871)">
        <path id="Path_28574" data-name="Path 28574" d="M402.109,16.16l-9.311.085a.454.454,0,0,0-.45.454v4.873a.454.454,0,0,0,.454.454h9.256c4.21.142,5.519,1.256,5.519,4.281v.526c-3.1-.158-5.31-.158-6.523-.158-7.993,0-11.627,2.576-11.627,8.15,0,5.785,3.417,8.57,10.148,8.57,3.366,0,5.995-.787,7.678-2.891h.315v1.964a.455.455,0,0,0,.454.454h6.033a.454.454,0,0,0,.454-.454h0V27.99C414.518,19.557,411.28,16.184,402.109,16.16Zm5.467,16.931c0,3.155-1.788,4.679-6.783,4.679-3,0-4.469-.947-4.469-3.1s1.578-3.207,5.1-3.207c1.211,0,3.577.1,6.152.211Z" transform="translate(-306.875 -10.291)" fill="#fff"/>
        <path id="Path_28575" data-name="Path 28575" d="M478.749,26.7c-3-.425-5.259-.842-5.259-2.683,0-1.418,1.16-2.054,5.374-2.1h7.8a.453.453,0,0,0,.454-.454h0V16.731a.454.454,0,0,0-.449-.454L478,16.2c-7.617.15-11.39,2.729-11.39,8.138,0,7.309,7.206,7.94,11.307,8.624,3.686.579,5.31.895,5.31,2.576,0,1.472-1.945,2.1-6.31,2.1a60.752,60.752,0,0,1-9.151-.709.457.457,0,0,0-.521.382.513.513,0,0,0-.005.062v4.573a.467.467,0,0,0,.373.45,45.188,45.188,0,0,0,9.724,1.026c8.309,0,12.779-2.576,12.779-8.412C490.107,28.436,483.8,27.379,478.749,26.7Z" transform="translate(-356.026 -10.316)" fill="#fff"/>
        <path id="Path_28576" data-name="Path 28576" d="M545.833,0a.453.453,0,0,1,.454.454h0v8.1h.368a10.512,10.512,0,0,1,7.625-2.683c6.572,0,9.833,3.524,9.833,11.254V32.178a.454.454,0,0,1-.454.454h-5.927a.455.455,0,0,1-.455-.454V17.331A5.584,5.584,0,0,0,551.8,11.7c-3.97-.013-5.511,1.721-5.511,5.626V32.178a.455.455,0,0,1-.454.454h-5.981a.454.454,0,0,1-.454-.454h0V.454A.453.453,0,0,1,539.853,0h5.981Z" transform="translate(-402.384)" fill="#fff"/>
        <path id="Path_28577" data-name="Path 28577" d="M332.82,22.142c2.035-.036,6.881-.016,8.381,0a.447.447,0,0,0,.45-.444V16.74a.453.453,0,0,0-.445-.454c-1.592-.026-7.023-.1-9.249-.027-7.891.271-11.692,4.6-11.692,13.249v.631c0,9.255,4.364,13.3,13.411,13.3a36.311,36.311,0,0,0,8.424-1.123.467.467,0,0,0,.357-.448V37.157a.45.45,0,0,0-.445-.454.464.464,0,0,0-.092.009,47.99,47.99,0,0,1-7.562.889c-5.1,0-7.2-2-7.2-7.678v-.21C327.153,24.663,328.839,22.21,332.82,22.142Z" transform="translate(-262.83 -10.333)" fill="#fff"/>
        <path id="Path_28578" data-name="Path 28578" d="M250.771,5.867a10.265,10.265,0,0,1,7.776,2.782h.369V.454A.454.454,0,0,1,259.369,0h5.979a.453.453,0,0,1,.454.454h0V32.178a.455.455,0,0,1-.454.454h-5.979a.454.454,0,0,1-.454-.454h0V30.319h-.369a10.27,10.27,0,0,1-7.783,2.787c-7.571,0-11.41-3.889-11.41-13.3v-.631C239.354,9.758,243.193,5.867,250.771,5.867Zm2.6,21.4c4.469,0,6.257-2.05,6.257-7.678v-.21c0-5.628-1.788-7.678-6.257-7.678-4.523,0-6.469,2.05-6.469,7.678v.21c-.005,5.626,1.94,7.676,6.463,7.676Z" transform="translate(-211.302)" fill="#fff"/>
        <path id="Path_28579" data-name="Path 28579" d="M174.792,16.16l-9.311.085a.453.453,0,0,0-.45.454v4.873a.454.454,0,0,0,.454.454h9.254c4.21.142,5.52,1.256,5.52,4.281v.526c-3.1-.158-5.31-.158-6.522-.158-7.993,0-11.627,2.576-11.627,8.15,0,5.785,3.417,8.57,10.148,8.57,3.366,0,5.995-.787,7.678-2.891h.315v1.964a.454.454,0,0,0,.454.454h6.033a.454.454,0,0,0,.454-.454h0V27.99C187.2,19.557,183.962,16.184,174.792,16.16Zm5.469,16.931c0,3.155-1.788,4.679-6.785,4.679-3,0-4.469-.947-4.469-3.1s1.578-3.207,5.1-3.207c1.211,0,3.577.1,6.154.211Z" transform="translate(-162.11 -10.291)" fill="#fff"/>
      </g>
    </g>
  </g>
</svg>
